<?xml version="1.0" encoding="UTF-8"?>
<svg id="Layer_1" data-name="Layer 1" xmlns="http://www.w3.org/2000/svg" viewBox="0 0 983.33 637.26">
  <defs>
    <style>
      .cls-1 {
        fill: #f4442e;
      }
    </style>
  </defs>
  <path class="cls-1" d="M27.08,234.76V99.34h27.08v108.33h108.33v-27.08h81.25v-27.08h54.17v27.08h-54.17v27.08h-81.25v27.08H54.17v135.42h243.75v27.08H54.17v-27.08h-27.08v-135.42ZM189.58,85.8v-13.54h27.08v27.08h27.08v-27.08h27.08v27.08h27.08v27.08h-27.08v-27.08h-27.08v27.08h-27.08v-27.08h-27.08v-13.54Z"/>
  <path class="cls-1" d="M352.08,207.67v-27.08h27.08v54.17h27.08v54.17h-27.08v-54.17h-27.08v-27.08ZM568.75,207.67v-54.17h27.08v108.33h-27.08v54.17h-27.08v27.08h-27.08v27.08h-27.08v27.08h-54.17v-27.08h54.17v-27.08h27.08v-27.08h27.08v-54.17h27.08v-54.17ZM433.33,180.59v-27.08h27.08v54.17h27.08v54.17h-27.08v-54.17h-27.08v-27.08Z"/>
  <path class="cls-1" d="M866.67,85.8v-13.54h27.08v27.08h27.08v-27.08h27.08v27.08h27.08v27.08h-27.08v-27.08h-27.08v54.17h27.08v81.25h-27.08v54.17h-27.08v27.08h-27.08v27.08h-27.08v27.08h-54.17v27.08h-81.25v-27.08h81.25v-27.08h54.17v-27.08h27.08v-27.08h27.08v-54.17h27.08v-81.25h-189.58v54.17h-27.08v27.08h-27.08v27.08h-27.08v-27.08h27.08v-27.08h27.08v-54.17h27.08v-27.08h162.5v-27.08h-27.08v-13.54Z"/>
  <path d="M0,478.93v-8.33h166.67v16.67h16.67v66.67h-16.67v33.33h-16.67v16.67h-16.67v16.67h-33.33v16.67H33.33v-16.67h66.67v-16.67h33.33v-16.67h16.67v-33.33h16.67v-66.67H0v-8.33Z"/>
  <path d="M366.67,495.59v-8.33h16.67v16.67h-16.67v16.67h-16.67v16.67h-33.33v100h-16.67v-83.33h-33.33v16.67h-50v-16.67h50v-16.67h50v-16.67h33.33v-16.67h16.67v-8.33Z"/>
  <path d="M416.67,528.93v-8.33h16.67v16.67h133.33v16.67h-133.33v-16.67h-16.67v-8.33Z"/>
  <path d="M650,478.93v-8.33h116.67v16.67h16.67v50h-16.67v33.33h-16.67v16.67h-16.67v16.67h-16.67v16.67h-33.33v16.67h-50v-16.67h50v-16.67h33.33v-16.67h16.67v-16.67h-16.67v-16.67h-33.33v-16.67h-33.33v-16.67h-16.67v16.67h-16.67v16.67h-16.67v-16.67h16.67v-16.67h16.67v-33.33h16.67v-8.33ZM766.67,512.26v-25h-116.67v33.33h33.33v16.67h33.33v16.67h16.67v16.67h16.67v-33.33h16.67v-25Z"/>
  <path d="M816.67,478.93v-8.33h133.33v16.67h16.67v33.33h-16.67v33.33h-16.67v16.67h16.67v16.67h16.67v16.67h16.67v33.33h-16.67v-33.33h-16.67v-16.67h-16.67v-16.67h-16.67v16.67h-16.67v16.67h-33.33v16.67h-33.33v16.67h-33.33v-16.67h33.33v-16.67h33.33v-16.67h33.33v-16.67h16.67v-16.67h16.67v-33.33h16.67v-33.33h-133.33v-8.33Z"/>
</svg>